<svg id="visual" viewBox="0 0 600 900" width="600" height="900" xmlns="http://www.w3.org/2000/svg" xmlns:xlink="http://www.w3.org/1999/xlink" version="1.1"><path d="M0 46L9.2 46C18.3 46 36.7 46 54.8 50.5C73 55 91 64 109.2 68.5C127.3 73 145.7 73 163.8 73C182 73 200 73 218.2 70C236.3 67 254.7 61 272.8 59.5C291 58 309 61 327.2 64C345.3 67 363.7 70 381.8 71.5C400 73 418 73 436.2 68.5C454.3 64 472.7 55 490.8 55C509 55 527 64 545.2 68.5C563.3 73 581.7 73 590.8 73L600 73L600 0L590.8 0C581.7 0 563.3 0 545.2 0C527 0 509 0 490.8 0C472.7 0 454.3 0 436.2 0C418 0 400 0 381.8 0C363.7 0 345.3 0 327.2 0C309 0 291 0 272.8 0C254.7 0 236.3 0 218.2 0C200 0 182 0 163.8 0C145.7 0 127.3 0 109.2 0C91 0 73 0 54.8 0C36.7 0 18.3 0 9.2 0L0 0Z" fill="#838383"></path><path d="M0 127L9.2 131.5C18.3 136 36.7 145 54.8 151C73 157 91 160 109.2 166C127.3 172 145.7 181 163.8 178C182 175 200 160 218.2 149.5C236.3 139 254.7 133 272.8 136C291 139 309 151 327.2 160C345.3 169 363.7 175 381.8 173.5C400 172 418 163 436.2 160C454.3 157 472.7 160 490.8 160C509 160 527 157 545.2 155.5C563.3 154 581.7 154 590.8 154L600 154L600 71L590.8 71C581.7 71 563.3 71 545.2 66.5C527 62 509 53 490.8 53C472.7 53 454.3 62 436.2 66.5C418 71 400 71 381.8 69.5C363.7 68 345.3 65 327.2 62C309 59 291 56 272.8 57.5C254.7 59 236.3 65 218.2 68C200 71 182 71 163.8 71C145.7 71 127.3 71 109.2 66.5C91 62 73 53 54.8 48.5C36.7 44 18.3 44 9.2 44L0 44Z" fill="#797979"></path><path d="M0 307L9.2 304C18.3 301 36.7 295 54.8 296.5C73 298 91 307 109.2 320.5C127.3 334 145.7 352 163.8 364C182 376 200 382 218.2 377.5C236.3 373 254.7 358 272.8 365.5C291 373 309 403 327.2 413.5C345.3 424 363.7 415 381.8 409C400 403 418 400 436.2 398.5C454.3 397 472.7 397 490.8 392.5C509 388 527 379 545.2 376C563.3 373 581.7 376 590.8 377.5L600 379L600 152L590.8 152C581.7 152 563.3 152 545.2 153.5C527 155 509 158 490.8 158C472.7 158 454.3 155 436.2 158C418 161 400 170 381.8 171.5C363.7 173 345.3 167 327.2 158C309 149 291 137 272.8 134C254.7 131 236.3 137 218.2 147.5C200 158 182 173 163.8 176C145.7 179 127.3 170 109.2 164C91 158 73 155 54.8 149C36.7 143 18.3 134 9.2 129.5L0 125Z" fill="#6e6e6e"></path><path d="M0 550L9.2 547C18.3 544 36.7 538 54.8 544C73 550 91 568 109.2 581.5C127.3 595 145.7 604 163.8 605.5C182 607 200 601 218.2 593.5C236.3 586 254.7 577 272.8 578.5C291 580 309 592 327.2 599.5C345.3 607 363.7 610 381.8 604C400 598 418 583 436.2 578.5C454.3 574 472.7 580 490.8 578.5C509 577 527 568 545.2 565C563.3 562 581.7 565 590.8 566.5L600 568L600 377L590.8 375.5C581.7 374 563.3 371 545.2 374C527 377 509 386 490.8 390.5C472.7 395 454.3 395 436.2 396.5C418 398 400 401 381.8 407C363.7 413 345.3 422 327.2 411.5C309 401 291 371 272.8 363.5C254.7 356 236.3 371 218.2 375.5C200 380 182 374 163.8 362C145.7 350 127.3 332 109.2 318.5C91 305 73 296 54.8 294.5C36.7 293 18.3 299 9.2 302L0 305Z" fill="#646464"></path><path d="M0 694L9.2 685C18.3 676 36.7 658 54.8 658C73 658 91 676 109.2 685C127.3 694 145.7 694 163.8 700C182 706 200 718 218.2 718C236.3 718 254.7 706 272.8 700C291 694 309 694 327.2 694C345.3 694 363.7 694 381.8 695.5C400 697 418 700 436.2 698.5C454.3 697 472.7 691 490.8 685C509 679 527 673 545.2 668.5C563.3 664 581.7 661 590.8 659.5L600 658L600 566L590.8 564.5C581.7 563 563.3 560 545.2 563C527 566 509 575 490.8 576.5C472.7 578 454.3 572 436.2 576.5C418 581 400 596 381.8 602C363.7 608 345.3 605 327.2 597.5C309 590 291 578 272.8 576.5C254.7 575 236.3 584 218.2 591.5C200 599 182 605 163.8 603.5C145.7 602 127.3 593 109.2 579.5C91 566 73 548 54.8 542C36.7 536 18.3 542 9.2 545L0 548Z" fill="#5b5b5b"></path><path d="M0 748L9.2 745C18.3 742 36.7 736 54.8 739C73 742 91 754 109.2 761.5C127.3 769 145.7 772 163.8 775C182 778 200 781 218.2 782.5C236.3 784 254.7 784 272.8 782.5C291 781 309 778 327.2 773.5C345.3 769 363.7 763 381.8 761.5C400 760 418 763 436.2 763C454.3 763 472.7 760 490.8 755.5C509 751 527 745 545.2 742C563.3 739 581.7 739 590.8 739L600 739L600 656L590.8 657.5C581.7 659 563.3 662 545.2 666.5C527 671 509 677 490.8 683C472.7 689 454.3 695 436.2 696.5C418 698 400 695 381.8 693.5C363.7 692 345.3 692 327.2 692C309 692 291 692 272.8 698C254.7 704 236.3 716 218.2 716C200 716 182 704 163.8 698C145.7 692 127.3 692 109.2 683C91 674 73 656 54.8 656C36.7 656 18.3 674 9.2 683L0 692Z" fill="#545454"></path><path d="M0 838L9.2 836.5C18.3 835 36.7 832 54.8 830.5C73 829 91 829 109.2 833.5C127.3 838 145.7 847 163.8 848.5C182 850 200 844 218.2 841C236.3 838 254.7 838 272.8 838C291 838 309 838 327.2 841C345.3 844 363.7 850 381.8 848.5C400 847 418 838 436.2 832C454.3 826 472.7 823 490.8 823C509 823 527 826 545.2 827.5C563.3 829 581.7 829 590.8 829L600 829L600 737L590.8 737C581.7 737 563.3 737 545.2 740C527 743 509 749 490.8 753.5C472.7 758 454.3 761 436.2 761C418 761 400 758 381.8 759.5C363.7 761 345.3 767 327.2 771.5C309 776 291 779 272.8 780.5C254.7 782 236.3 782 218.2 780.5C200 779 182 776 163.8 773C145.7 770 127.3 767 109.2 759.5C91 752 73 740 54.8 737C36.7 734 18.3 740 9.2 743L0 746Z" fill="#4d4d4d"></path><path d="M0 901L9.2 901C18.3 901 36.7 901 54.8 901C73 901 91 901 109.2 901C127.3 901 145.7 901 163.8 901C182 901 200 901 218.2 901C236.3 901 254.7 901 272.8 901C291 901 309 901 327.2 901C345.3 901 363.7 901 381.8 901C400 901 418 901 436.2 901C454.3 901 472.7 901 490.8 901C509 901 527 901 545.2 901C563.3 901 581.7 901 590.8 901L600 901L600 827L590.8 827C581.7 827 563.3 827 545.2 825.5C527 824 509 821 490.8 821C472.7 821 454.3 824 436.2 830C418 836 400 845 381.8 846.5C363.7 848 345.3 842 327.2 839C309 836 291 836 272.8 836C254.7 836 236.3 836 218.2 839C200 842 182 848 163.8 846.5C145.7 845 127.3 836 109.2 831.5C91 827 73 827 54.8 828.5C36.7 830 18.3 833 9.2 834.5L0 836Z" fill="#464646"></path></svg>